<svg xmlns="http://www.w3.org/2000/svg" viewBox="0 -0.5 64 64" shape-rendering="crispEdges"><rect fill="#000000" y="-0.5" width="64" height="65"/><path stroke="#626262" d="M30 3h1M21 10h1M41 14h1M25 16h1M27 16h2M33 16h1M21 19h1M39 21h1M40 22h1M41 23h1M40 24h2M40 25h2M34 27h1M39 27h1M23 29h1M26 29h2M33 29h2M39 29h1M23 30h1M27 30h1M24 31h1M27 31h1M32 31h1M34 31h1M25 32h1M38 35h1M29 38h1M24 43h1M24 47h1M25 49h1M38 49h1M25 50h1M27 50h1M25 51h1M37 51h1M25 52h1M27 52h1M35 53h1M37 53h1M27 54h1M24 55h1M38 55h1M28 57h1M32 59h1M33 60h1M36 60h1M26 61h1M28 61h1M35 61h1M35 62h1M34 63h1"/><path stroke="#898989" d="M37 10h1M24 11h1M26 16h1M24 17h1M37 17h1M22 18h1M35 18h1M40 23h1M21 26h1M31 37h1M28 38h1M33 59h1M35 59h1M34 61h1"/><path stroke="#ADADAD" d="M27 15h1M35 16h1M39 16h1M41 16h1M39 18h1M21 20h1M40 20h1M21 25h1M32 27h1M34 38h1"/><path stroke="#FFFFFF" d="M31 3h1M31 4h1M27 5h1M29 5h4M27 6h1M29 6h5M24 7h1M27 7h1M29 7h5M25 8h1M27 8h1M29 8h3M33 8h1M25 9h11M25 10h1M27 10h7M35 10h1M22 11h1M25 11h12M38 11h1M25 12h3M29 12h3M33 12h4M38 12h1M21 13h3M25 13h3M29 13h4M34 13h3M21 14h2M24 14h1M27 14h2M30 14h3M36 14h1M19 15h2M22 15h2M25 15h2M37 15h1M39 15h2M21 16h1M23 16h1M20 17h2M40 17h1M26 18h1M20 19h1M22 21h1M21 22h1M22 23h1M22 24h1M22 25h1M40 27h1M29 37h1M32 37h3M30 38h4M29 39h5"/><path stroke="#9F4E44" d="M21 27h3M28 27h1M33 27h1M22 28h1M30 28h2M40 28h1M30 29h1M32 29h1M24 32h1M23 44h1M21 46h2M42 46h1M18 47h1M21 47h2M43 47h1M45 47h1M16 48h2M19 48h4M41 48h1M43 48h2M46 48h2M15 49h3M19 49h4M41 49h1M44 49h1M47 49h3M14 50h3M18 50h5M44 50h2M47 50h6M13 51h3M17 51h3M21 51h2M45 51h2M49 51h8M10 52h5M16 52h7M44 52h4M49 52h13M1 53h1M7 53h3M11 53h3M15 53h8M43 53h5M49 53h1M51 53h3M55 53h3M59 53h3M63 53h1M1 54h1M4 54h10M15 54h5M21 54h2M42 54h1M44 54h3M49 54h13M63 54h1M1 55h3M5 55h3M9 55h3M13 55h2M18 55h1M20 55h3M42 55h2M45 55h1M48 55h4M53 55h3M57 55h3M61 55h1M1 56h1M3 56h13M19 56h4M42 56h4M49 56h13M3 57h12M17 57h6M42 57h6M51 57h10M62 57h1M0 58h1M3 58h10M15 58h8M42 58h9M52 58h9M1 59h11M13 59h3M17 59h3M21 59h2M42 59h3M47 59h4M53 59h3M57 59h3M0 60h3M4 60h8M13 60h10M42 60h5M48 60h3M52 60h8M0 61h3M4 61h3M8 61h4M13 61h1M15 61h8M41 61h9M51 61h2M54 61h5M0 62h3M4 62h3M8 62h4M14 62h9M41 62h9M51 62h2M54 62h4M60 62h1M62 62h1M1 63h1M5 63h3M9 63h4M14 63h2M17 63h3M21 63h2M41 63h9M51 63h2M54 63h4M61 63h1"/><path stroke="#CB7E75" d="M37 26h2M41 26h1M29 27h1M32 28h1M23 31h1M28 32h1M37 32h1M30 37h1M23 43h1M22 44h1M21 45h2M20 46h1M17 47h1M20 47h1M14 48h2M12 49h3M18 49h1M50 49h1M9 50h5M17 50h1M41 50h1M53 50h1M6 51h7M16 51h1M20 51h1M41 51h1M48 51h1M57 51h1M3 52h7M2 53h5M10 53h1M41 53h1M50 53h1M54 53h1M58 53h1M62 53h1M2 54h2M41 54h1M0 55h1M4 55h1M8 55h1M12 55h1M17 55h1M41 55h1M52 55h1M56 55h1M60 55h1M62 55h1M0 56h1M18 56h1M41 56h1M46 56h1M62 56h1M0 57h2M16 57h1M41 57h1M48 57h1M1 58h1M14 58h1M41 58h1M61 58h1M12 59h1M16 59h1M20 59h1M41 59h1M52 59h1M56 59h1M61 59h1M12 60h1M41 60h1M14 61h1M40 61h1M60 61h1M13 62h1M40 62h1M0 63h1M13 63h1M16 63h1M20 63h1M40 63h1"/><path stroke="#6D5412" d="M30 4h1M32 15h1M29 16h1M37 16h1M23 17h1M25 17h2M25 19h1M20 21h1M38 21h1M38 22h2M38 23h1M23 24h1M39 24h1M26 26h1M39 26h1M30 27h1M20 28h1M41 28h1M43 28h1M19 29h1M43 29h1M20 30h2M42 30h1M39 31h1M22 32h1M33 32h2M41 32h1M35 33h3M39 33h2M34 34h1M38 34h2M24 35h1M31 35h1M39 35h1M33 36h3M37 36h3M28 37h1M39 37h1M39 38h1M35 39h1M38 39h1M36 40h2M30 41h1M33 41h1M37 41h1M24 42h1M36 42h1M40 43h1M23 45h1M33 45h2M38 45h1M40 45h1M19 46h1M40 46h2M25 47h1M36 47h1M41 47h2M44 47h1M26 49h1M31 49h2M36 49h1M42 49h2M45 49h2M31 50h3M43 50h1M24 51h1M42 51h3M28 52h1M35 52h1M43 52h1M14 53h1M27 53h1M0 54h1M14 54h1M29 54h2M15 55h1M28 55h1M63 55h1M2 56h1M31 56h1M48 56h1M2 57h1M15 57h1M50 57h1M2 58h1M29 58h2M32 58h1M34 58h1M36 58h1M62 58h1M0 59h1M25 59h2M46 59h1M60 59h1M30 60h1M34 60h1M40 60h1M47 60h1M61 60h2M3 61h1M12 61h1M24 61h1M30 61h1M32 61h1M61 61h1M3 62h1M7 62h1M12 62h1M23 62h1M30 62h1M33 62h1M63 62h1M3 63h1M8 63h1M23 63h1M26 63h2M29 63h3M53 63h1M58 63h1M60 63h1M62 63h1"/><path stroke="#A1683C" d="M23 21h1M37 21h1M36 22h1M24 24h1M38 24h1M23 25h1M22 30h1M21 31h1M21 32h1M32 32h1M23 34h1M32 34h1M23 35h1M32 36h1M38 38h1M34 40h1M25 41h1M36 41h1M35 43h1M28 45h1M31 45h2M26 48h1M35 49h1M35 50h1M34 54h1"/><path stroke="#C9D487" d="M32 3h1M32 4h1M33 5h1M28 7h1M28 8h1M32 8h1M34 8h2M24 10h1M26 10h1M34 10h1M36 10h1M37 11h1M22 12h3M28 12h1M32 12h1M37 12h1M24 13h1M28 13h1M33 13h1M37 13h3M23 14h1M25 14h2M29 14h1M33 14h3M37 14h3M42 14h1M24 15h1M33 15h4M38 15h1M41 15h1M20 16h1M22 16h1M38 16h1M40 16h1M20 18h1M29 19h3M24 20h12M24 21h12M22 22h1M24 22h12M21 23h1M25 23h5M31 23h4M21 24h1M25 24h9M35 24h3M24 25h13M27 26h8M18 27h1M20 27h1M42 27h1M18 28h2M20 29h1M31 29h1M19 30h1M31 30h1M43 30h1M20 31h1M30 31h2M42 31h1M20 32h1M30 32h2M42 32h1M21 33h2M24 33h1M28 33h6M38 33h1M22 34h1M25 34h2M28 34h1M31 34h1M35 34h1M37 34h1M27 35h4M34 35h4M25 36h7M24 37h2M36 37h2M25 38h3M36 38h2M25 39h1M27 39h2M36 39h1M26 40h2M30 40h2M33 40h1M35 40h1M27 41h3M35 41h1M25 42h1M28 42h8M25 43h2M28 43h7M25 44h2M29 44h6M25 45h3M25 46h3M26 47h3M27 48h2M27 49h3M28 50h3M28 51h3M34 51h1M29 52h2M33 52h2M33 53h1M32 54h2M29 55h1M32 55h3M29 56h2M33 56h2M29 57h2M33 57h2M31 58h1M33 58h1M31 59h1M31 60h1M31 61h1M33 61h1M32 62h1"/><path stroke="#5CAB5E" d="M28 19h1M32 19h1M36 20h1M36 21h1M23 22h1M37 22h1M23 23h2M30 23h1M35 23h3M34 24h1M38 25h1M23 26h1M42 29h1M23 32h1M27 32h1M23 33h1M34 33h1M24 34h1M27 34h1M30 34h1M36 34h1M25 35h2M24 36h1M26 37h1M24 38h1M35 38h1M24 39h1M26 39h1M34 39h1M25 40h1M28 40h2M32 40h1M26 41h1M34 41h1M27 42h1M27 44h1M30 45h1M28 46h2M29 47h2M29 48h3M30 49h1M34 50h1M31 51h3M36 51h1M31 52h2M29 53h4M34 53h1M31 54h1M30 55h2M32 56h1M31 57h2M30 59h1M34 59h1M32 60h1M35 60h1M31 62h1M32 63h2"/><path stroke="#6ABFC6" d="M38 27h1M24 28h1M33 28h1M35 28h1M38 28h1M38 29h1M24 30h3M37 30h1M36 31h2"/><path stroke="#50459B" d="M25 27h1M23 28h1M25 28h1M37 28h1M39 28h1M24 29h1M37 29h1M36 30h1M38 30h1M28 31h1M35 31h1M38 31h1M26 32h1"/></svg>